<?xml version="1.0" encoding="utf-8"?>
<?xml-stylesheet type="text/xsl" href="rss1.xsl"?>
<rss version="2.0" xmlns:atom="http://www.w3.org/2005/Atom" xmlns:content="http://purl.org/rss/1.0/modules/content/" xmlns:dc="http://purl.org/dc/elements/1.1/" xmlns:media="http://search.yahoo.com/mrss/">
<channel>
 <title>Getty</title>
 <link>http://www.gettyimg.com/</link>
 <atom:link href="http://www.gettyimg.com/" rel="self" type="application/rss+xml" />

 
                <item>
                <title><![CDATA[【UPSCALED】Cheat Codes - Highway ft. Sofia Reyes [4K AI Upscale | HEVC 10-bit | PCM 24-bit 48 kHz]]]></title>
                <link><![CDATA[https://sharemania.us/threads/cheat-codes-highway-ft-sofia-reyes-4k-ai-upscale-hevc-10-bit-pcm-24-bit-48-khz.227544/]]></link>
                <description><![CDATA[<article>
<blockquote class="messageText SelectQuoteContainer ugc baseHtml">
<b><img src="https://images2.imgbox.com/b1/2b/HLl5DVtU_o.jpg" class="bbCodeImage LbImage" alt="[​IMG]" data-url="https://images2.imgbox.com/b1/2b/HLl5DVtU_o.jpg" style=""> <br>
<br>
Genre: <span style="color: #0059b3">Electronic</span><br>
Style: <span style="color: #0059b3">EDM</span><br>
Year: <span style="color: #0059b3">2019</span><br>
Source: <span style="color: #0059b3">Master, ProRes</span></b><br>
<br>
“<b>Highway</b>” is a song by American electronic music DJ trio Cheat Codes (comprised of Trevor Dahl, Matthew Russell and Kevin Ford), featuring Mexican singer and songwriter Sofía Reyes. It is released as a single on Aug 23, 2019.<br>
<br>
“They say life is a highway and we all travel our own roads, some good some bad, yet each is a blessing in itself,” Cheat Codes’ Kevi Ford said about the meaning of the track.<br>
<br>
There is also a version with a verse in Spanish sung by French DJ, record producer and singer Willy William. The version of this release is without the Spanish verse.<br>
<br>
<b>Release Info</b><br>
The video track is upscaled to 4K with Topaz Video AI and encoded to HEVC 10-bit.<br>
The PCM track is lossless (24-bit 48 kHz) and is the default track from the master.<br>
The timed lyrics are synced &amp; edited. Enable the subtitles to see the lyrics.<br>
<br>
<div class="ToggleTriggerAnchor bbCodeSpoilerContainer">
<button type="button" class="button bbCodeSpoilerButton ToggleTrigger Tooltip JsOnly" data-target="> .SpoilerTarget"><span>Spoiler: <span class="SpoilerTitle">Media Info</span></span></button>
<div class="SpoilerTarget bbCodeSpoilerText">
<div class="bbCodeBlock bbCodeCode">
<div class="type">Code:</div>
<pre>General
Unique ID                      : 13693170655484437095099427555580528649 (0xA4D356FFA64C299FA66BCD0647F4809)
Complete name                  : Cheat Codes - Highway ft. Sofia Reyes.mkv
Format                         : Matroska
Format version                 : Version 4 / Version 2
File size                      : 389 MiB
Duration                       : 2 min 50 s
Overall bit rate               : 19.1 Mb/s
Frame rate                     : 23.976 FPS
Encoded date                   : 2023-09-01 22:29:49 UTC
Writing application            : mkvmerge v76.0 ('Celebration') 64-bit
Writing library                : libebml v1.4.4 + libmatroska v1.7.1

Video
ID                             : 1
Format                         : HEVC
Format/Info                    : High Efficiency Video Coding
Format profile                 : Main 10@L5@Main
Codec ID                       : V_MPEGH/ISO/HEVC
Duration                       : 2 min 50 s
Bit rate                       : 16.8 Mb/s
Width                          : 3 840 pixels
Height                         : 1 610 pixels
Display aspect ratio           : 2.40:1
Frame rate mode                : Constant
Frame rate                     : 23.976 (24000/1001) FPS
Color space                    : YUV
Chroma subsampling             : 4:2:0
Bit depth                      : 10 bits
Bits/(Pixel*Frame)             : 0.114
Stream size                    : 342 MiB (88%)
Writing library                : x265 3.5+1-f0c1022b6:[Windows][GCC 10.2.0][64 bit] 10bit
Encoding settings              : cpuid=1111039 / frame-threads=5 / numa-pools=32 / wpp / no-pmode / no-pme / no-psnr / no-ssim / log-level=2 / input-csp=1 / input-res=3840x1610 / interlace=0 / total-frames=0 / level-idc=0 / high-tier=1 / uhd-bd=0 / ref=4 / no-allow-non-conformance / no-repeat-headers / annexb / no-aud / no-eob / no-eos / no-hrd / info / hash=0 / no-temporal-layers / open-gop / min-keyint=24 / keyint=240 / gop-lookahead=0 / bframes=4 / b-adapt=2 / b-pyramid / bframe-bias=0 / rc-lookahead=25 / lookahead-slices=4 / scenecut=40 / no-hist-scenecut / radl=0 / no-splice / no-intra-refresh / ctu=64 / min-cu-size=8 / rect / no-amp / max-tu-size=32 / tu-inter-depth=1 / tu-intra-depth=1 / limit-tu=0 / rdoq-level=2 / dynamic-rd=0.00 / no-ssim-rd / signhide / no-tskip / nr-intra=0 / nr-inter=0 / no-constrained-intra / strong-intra-smoothing / max-merge=3 / limit-refs=3 / limit-modes / me=3 / subme=3 / merange=57 / temporal-mvp / no-frame-dup / no-hme / weightp / no-weightb / no-analyze-src-pics / deblock=0:0 / sao / no-sao-non-deblock / rd=4 / selective-sao=4 / no-early-skip / rskip / no-fast-intra / no-tskip-fast / no-cu-lossless / no-b-intra / no-splitrd-skip / rdpenalty=0 / psy-rd=2.00 / psy-rdoq=1.00 / no-rd-refine / no-lossless / cbqpoffs=0 / crqpoffs=0 / rc=crf / crf=20.0 / qcomp=0.60 / qpstep=4 / stats-write=0 / stats-read=0 / ipratio=1.40 / pbratio=1.30 / aq-mode=2 / aq-strength=1.00 / cutree / zone-count=0 / no-strict-cbr / qg-size=32 / no-rc-grain / qpmax=69 / qpmin=0 / no-const-vbv / sar=1 / overscan=0 / videoformat=5 / range=0 / colorprim=1 / transfer=1 / colormatrix=1 / chromaloc=0 / display-window=0 / cll=0,0 / min-luma=0 / max-luma=1023 / log2-max-poc-lsb=8 / vui-timing-info / vui-hrd-info / slices=1 / no-opt-qp-pps / no-opt-ref-list-length-pps / no-multi-pass-opt-rps / scenecut-bias=0.05 / no-opt-cu-delta-qp / no-aq-motion / no-sbrc / no-hdr10 / no-hdr10-opt / no-dhdr10-opt / no-idr-recovery-sei / analysis-reuse-level=0 / analysis-save-reuse-level=0 / analysis-load-reuse-level=0 / scale-factor=0 / refine-intra=0 / refine-inter=0 / refine-mv=1 / refine-ctu-distortion=0 / no-limit-sao / ctu-info=0 / no-lowpass-dct / refine-analysis-type=0 / copy-pic=1 / max-ausize-factor=1.0 / no-dynamic-refine / no-single-sei / no-hevc-aq / no-svt / no-field / qp-adaptation-range=1.00 / scenecut-aware-qp=0conformance-window-offsets / right=0 / bottom=0 / decoder-max-rate=0 / no-vbv-live-multi-pass / no-mcstf
Default                        : Yes
Forced                         : No
Color range                    : Limited
Color primaries                : BT.709
Transfer characteristics       : BT.709
Matrix coefficients            : BT.709

Audio
ID                             : 2
Format                         : PCM
Format settings                : Little / Signed
Codec ID                       : A_PCM/INT/LIT
Duration                       : 2 min 50 s
Bit rate mode                  : Constant
Bit rate                       : 2 304 kb/s
Channel(s)                     : 2 channels
Sampling rate                  : 48.0 kHz
Frame rate                     : 25.001 FPS (1920 SPF)
Bit depth                      : 24 bits
Delay relative to video        : -5 ms
Stream size                    : 46.9 MiB (12%)
Language                       : English
Default                        : Yes
Forced                         : No

Text
ID                             : 3
Format                         : UTF-8
Codec ID                       : S_TEXT/UTF8
Codec ID/Info                  : UTF-8 Plain Text
Duration                       : 2 min 32 s
Bit rate                       : 99 b/s
Frame rate                     : 0.355 FPS
Count of elements              : 54
Stream size                    : 1.85 KiB (0%)
Title                          : Lyrics
Language                       : English
Default                        : No
Forced                         : No
</pre>
</div></div>
</div><br>
<div class="bbCodeBlock bbCodeVfcHH HiddenContent">
<div class="attribution type">Hidden Content:</div>
<blockquote>You must reply before you can see the hidden data contained here.</blockquote>
</div>
<div class="messageTextEndMarker">&nbsp;</div>
</blockquote>
</article>]]></description>
                <author><![CDATA[ADHDerby]]></author>
                </item>

                
                <item>
                <title><![CDATA[【Requests】[REQ AUD] - Nerina Pallot: Albums (Stay Lucky) and (I don't know what I'm Doing) FLAC.. Would be much appreciated]]></title>
                <link><![CDATA[https://sharemania.us/threads/nerina-pallot-albums-stay-lucky-and-i-dont-know-what-im-doing-flac-would-be-much-appreciated.227543/]]></link>
                <description><![CDATA[<article>
<blockquote class="messageText SelectQuoteContainer ugc baseHtml">
Nerina Pallot: Albums (Stay Lucky) and (I don't know what I'm Doing) FLAC.. Would be much appreciated
<div class="messageTextEndMarker">&nbsp;</div>
</blockquote>
</article>]]></description>
                <author><![CDATA[willbe]]></author>
                </item>

                </channel></rss>